<?xml version="1.0" standalone="no"?>
<!DOCTYPE svg PUBLIC "-//W3C//DTD SVG 20010904//EN"
 "http://www.w3.org/TR/2001/REC-SVG-20010904/DTD/svg10.dtd">
<svg version="1.0" xmlns="http://www.w3.org/2000/svg"
 width="980.000000pt" height="980.000000pt" viewBox="0 0 980.000000 980.000000"
 preserveAspectRatio="xMidYMid meet">
<metadata>
Created by potrace 1.14, written by Peter Selinger 2001-2017
</metadata>
<g transform="translate(0.000000,980.000000) scale(0.100000,-0.100000)"
fill="#000000" stroke="none">
<path d="M695 9781 c-102 -29 -184 -79 -271 -166 -88 -87 -140 -177 -169 -290
-13 -52 -15 -558 -15 -4425 0 -3867 2 -4373 15 -4425 55 -217 240 -405 451
-459 56 -14 454 -16 4187 -16 2939 0 4141 3 4179 11 221 45 426 251 473 475
22 104 22 8724 0 8828 -37 176 -172 346 -336 424 -46 22 -108 45 -137 51 -38
8 -1239 11 -4185 10 -3883 0 -4136 -1 -4192 -18z m983 -595 c24 -16 50 -46 62
-71 20 -41 21 -56 18 -392 l-3 -350 -25 -36 c-15 -22 -46 -48 -74 -62 l-50
-25 -318 0 c-265 0 -325 3 -356 15 -49 21 -81 52 -103 100 -17 36 -19 71 -19
368 0 273 3 334 15 365 21 49 51 81 100 103 37 18 65 19 376 17 l336 -3 41
-29z m7190 19 c49 -21 81 -52 103 -100 17 -36 19 -70 19 -370 0 -300 -2 -334
-19 -370 -22 -48 -54 -79 -103 -100 -31 -12 -91 -15 -356 -15 l-318 0 -50 25
c-28 14 -59 40 -74 62 l-25 36 -3 350 c-3 334 -2 351 18 391 21 44 65 83 109
96 14 5 169 9 344 9 265 1 324 -2 355 -14z m-1621 -447 c66 -16 118 -71 133
-140 8 -39 10 -452 8 -1558 l-3 -1505 -25 -43 c-15 -27 -42 -54 -70 -70 l-45
-27 -2346 0 -2346 0 -48 30 c-30 19 -56 45 -69 70 -21 40 -21 40 -24 1558 -1
1051 1 1531 8 1558 14 51 76 113 126 127 59 15 4640 16 4701 0z m-5592 -1090
c37 -20 68 -53 89 -95 23 -47 24 -684 1 -740 -20 -48 -41 -71 -87 -94 -34 -18
-63 -19 -373 -19 -382 0 -389 1 -442 82 l-28 41 -3 344 c-3 321 -2 346 16 387
23 51 72 92 128 105 21 5 180 9 354 8 272 -2 319 -4 345 -19z m7230 -4 c22
-11 54 -40 70 -63 l30 -43 0 -351 c0 -403 0 -406 -84 -458 l-45 -29 -338 0
c-313 0 -342 1 -376 19 -46 23 -67 46 -87 94 -12 30 -15 93 -15 372 0 314 1
338 20 374 22 43 71 89 103 96 12 2 31 6 42 9 11 2 160 4 330 3 293 -2 312 -3
350 -23z m-7208 -1546 c24 -16 49 -44 62 -70 20 -42 21 -58 21 -381 0 -261 -3
-345 -14 -370 -17 -43 -76 -93 -123 -106 -50 -14 -625 -14 -675 -1 -50 14 -97
55 -119 105 -17 36 -19 70 -18 370 1 356 3 372 54 426 54 58 58 59 431 56
l340 -2 41 -27z m7190 21 c40 -15 82 -57 104 -104 17 -36 19 -70 19 -360 0
-203 -4 -335 -11 -360 -14 -51 -73 -110 -124 -124 -53 -14 -626 -15 -678 0
-51 14 -114 72 -128 118 -6 23 -9 155 -7 377 l3 340 27 41 c15 23 44 49 70 62
41 20 56 21 370 21 206 0 337 -4 355 -11z m-7244 -1530 c47 -13 106 -63 123
-106 11 -25 14 -109 14 -370 0 -323 -1 -339 -21 -381 -13 -26 -38 -54 -62 -70
l-41 -27 -339 -3 c-326 -3 -341 -2 -382 18 -25 12 -55 38 -71 62 l-29 41 -3
341 c-3 375 -1 395 57 450 54 52 80 55 411 56 183 0 320 -4 343 -11z m7232 0
c51 -14 110 -73 124 -124 7 -25 11 -157 11 -360 0 -288 -2 -324 -19 -360 -23
-51 -81 -102 -123 -110 -18 -3 -180 -5 -359 -3 l-326 3 -40 27 c-24 16 -49 44
-62 70 -20 42 -21 58 -21 382 0 369 1 374 59 430 54 52 80 55 411 56 193 0
320 -4 345 -11z m-1582 -463 c43 -17 93 -76 106 -123 15 -53 15 -2793 0 -2846
-13 -47 -63 -106 -106 -123 -48 -21 -4698 -21 -4746 0 -43 17 -93 76 -106 123
-15 53 -15 2793 0 2846 12 46 63 105 104 123 45 20 4701 20 4748 0z m-5615
-1085 c46 -23 67 -46 87 -94 12 -30 15 -93 15 -372 0 -314 -1 -338 -20 -374
-27 -54 -71 -87 -130 -100 -65 -14 -589 -14 -650 0 -60 14 -108 52 -132 105
-18 41 -19 66 -16 387 l3 344 27 40 c15 23 44 49 70 62 41 20 56 21 376 21
307 0 336 -1 370 -19z m7249 -13 c77 -51 78 -56 78 -455 l0 -351 -30 -43 c-57
-81 -69 -84 -408 -87 -196 -2 -316 1 -352 8 -64 13 -107 46 -135 101 -19 36
-20 60 -20 376 0 307 2 342 19 378 20 43 39 64 86 89 26 14 75 15 376 13 l345
-2 41 -27z m-7262 -1517 c47 -22 89 -64 104 -104 7 -18 11 -151 11 -364 0
-323 -1 -339 -21 -381 -13 -26 -38 -54 -62 -70 l-40 -27 -331 -3 c-208 -2
-344 1 -366 7 -43 13 -103 74 -119 120 -7 23 -11 143 -11 358 0 269 3 330 15
361 21 49 52 81 100 103 36 17 70 19 360 19 290 0 324 -2 360 -19z m7230 0
c50 -22 91 -69 105 -119 6 -22 10 -167 10 -357 0 -356 -3 -372 -69 -428 -55
-45 -82 -48 -432 -45 l-326 3 -40 27 c-24 16 -49 44 -62 70 -20 42 -21 58 -21
381 0 213 4 346 11 364 15 40 57 82 104 104 36 17 70 19 360 19 289 0 324 -2
360 -19z"/>
</g>
</svg>
